<svg width="28" height="28" viewBox="0 0 28 28" fill="none" xmlns="http://www.w3.org/2000/svg">
<path d="M7.70703 13.916V12.1318C7.70703 11.9502 7.77148 11.7949 7.90039 11.666C8.0293 11.5371 8.18457 11.4727 8.36621 11.4727C8.55371 11.4727 8.71191 11.5371 8.84082 11.666C8.96973 11.7949 9.03418 11.9502 9.03418 12.1318V13.8633C9.03418 14.8594 9.23926 15.7324 9.64941 16.4824C10.0596 17.2324 10.6367 17.8154 11.3809 18.2314C12.125 18.6416 12.998 18.8467 14 18.8467C15.002 18.8467 15.8721 18.6416 16.6104 18.2314C17.3545 17.8154 17.9316 17.2324 18.3418 16.4824C18.752 15.7324 18.957 14.8594 18.957 13.8633V12.1318C18.957 11.9502 19.0215 11.7949 19.1504 11.666C19.2793 11.5371 19.4375 11.4727 19.625 11.4727C19.8066 11.4727 19.9619 11.5371 20.0908 11.666C20.2197 11.7949 20.2842 11.9502 20.2842 12.1318V13.916C20.2842 15.0645 20.0469 16.084 19.5723 16.9746C19.1035 17.8652 18.4473 18.5801 17.6035 19.1191C16.7598 19.6523 15.7783 19.9658 14.6592 20.0596V22.1074H17.9199C18.1074 22.1074 18.2656 22.1719 18.3945 22.3008C18.5234 22.4297 18.5879 22.5879 18.5879 22.7754C18.5879 22.957 18.5234 23.1123 18.3945 23.2412C18.2656 23.3701 18.1074 23.4346 17.9199 23.4346H10.0713C9.88379 23.4346 9.72559 23.3701 9.59668 23.2412C9.46777 23.1123 9.40332 22.957 9.40332 22.7754C9.40332 22.5879 9.46777 22.4297 9.59668 22.3008C9.72559 22.1719 9.88379 22.1074 10.0713 22.1074H13.332V20.0596C12.2129 19.9658 11.2314 19.6523 10.3877 19.1191C9.54395 18.5801 8.88477 17.8652 8.41016 16.9746C7.94141 16.084 7.70703 15.0645 7.70703 13.916ZM10.8008 13.5996V8.07129C10.8008 7.39746 10.9355 6.80273 11.2051 6.28711C11.4746 5.76563 11.8496 5.3584 12.3301 5.06543C12.8105 4.77246 13.3672 4.62598 14 4.62598C14.627 4.62598 15.1807 4.77246 15.6611 5.06543C16.1416 5.3584 16.5166 5.76563 16.7861 6.28711C17.0557 6.80273 17.1904 7.39746 17.1904 8.07129V13.5996C17.1904 14.2734 17.0557 14.8711 16.7861 15.3926C16.5166 15.9082 16.1416 16.3125 15.6611 16.6055C15.1807 16.8984 14.627 17.0449 14 17.0449C13.3672 17.0449 12.8105 16.8984 12.3301 16.6055C11.8496 16.3125 11.4746 15.9082 11.2051 15.3926C10.9355 14.8711 10.8008 14.2734 10.8008 13.5996ZM12.1279 13.5996C12.1279 14.25 12.2979 14.7686 12.6377 15.1553C12.9834 15.542 13.4375 15.7354 14 15.7354C14.5625 15.7354 15.0137 15.542 15.3535 15.1553C15.6934 14.7686 15.8633 14.25 15.8633 13.5996V8.07129C15.8633 7.4209 15.6934 6.90234 15.3535 6.51562C15.0137 6.12891 14.5625 5.93555 14 5.93555C13.4375 5.93555 12.9834 6.12891 12.6377 6.51562C12.2979 6.90234 12.1279 7.4209 12.1279 8.07129V13.5996Z" fill="#333333"/>
</svg>
