<svg width="28" height="28" viewBox="0 0 28 28" fill="none" xmlns="http://www.w3.org/2000/svg">
<path d="M14.8447 23.2871C14.4346 23.2871 14.1387 23.1406 13.957 22.8477C13.7754 22.5547 13.6201 22.1885 13.4912 21.749L12.0938 17.1084C12.0117 16.8154 11.9824 16.5811 12.0059 16.4053C12.0293 16.2236 12.126 16.042 12.2959 15.8604L21.2695 6.18359C21.3223 6.13086 21.3486 6.07227 21.3486 6.00781C21.3486 5.94336 21.3252 5.89063 21.2783 5.84961C21.2314 5.80859 21.1758 5.78809 21.1113 5.78809C21.0527 5.78223 20.9971 5.80566 20.9443 5.8584L11.3027 14.8672C11.1094 15.043 10.9219 15.1426 10.7402 15.166C10.5586 15.1836 10.3271 15.1484 10.0459 15.0605L5.2998 13.6191C4.87793 13.4902 4.5293 13.3379 4.25391 13.1621C3.97852 12.9805 3.84082 12.6875 3.84082 12.2832C3.84082 11.9668 3.9668 11.6943 4.21875 11.4658C4.4707 11.2373 4.78125 11.0527 5.15039 10.9121L20.2676 5.12012C20.4727 5.04395 20.6631 4.98535 20.8389 4.94434C21.0205 4.89746 21.1846 4.87402 21.3311 4.87402C21.6182 4.87402 21.8438 4.95605 22.0078 5.12012C22.1719 5.28418 22.2539 5.50977 22.2539 5.79688C22.2539 5.94922 22.2305 6.11328 22.1836 6.28906C22.1426 6.46484 22.084 6.65527 22.0078 6.86035L16.251 21.8984C16.0869 22.3203 15.8906 22.6572 15.6621 22.9092C15.4336 23.1611 15.1611 23.2871 14.8447 23.2871Z" fill="#FAFAFA"/>
</svg>
